<?xml version="1.0" standalone="no"?>
<!DOCTYPE svg PUBLIC "-//W3C//DTD SVG 20010904//EN"
 "http://www.w3.org/TR/2001/REC-SVG-20010904/DTD/svg10.dtd">
<svg version="1.0" xmlns="http://www.w3.org/2000/svg"
 width="338.000000pt" height="338.000000pt" viewBox="0 0 338.000000 338.000000"
 preserveAspectRatio="xMidYMid meet">

<g transform="translate(0.000000,338.000000) scale(0.100000,-0.100000)"
fill="#000000" stroke="none">
<path d="M1685 3089 c-165 -21 -377 -139 -445 -246 -31 -48 -30 -93 1 -93 23
0 24 -8 4 -30 -15 -17 -12 -61 10 -112 6 -14 2 -18 -16 -18 -13 0 -30 -4 -37
-9 -21 -13 -33 -83 -22 -122 6 -19 10 -34 10 -34 0 -1 -16 1 -36 3 -26 3 -44
-2 -64 -17 -21 -15 -37 -19 -58 -15 -17 3 -38 1 -49 -5 -15 -10 -14 -10 9 -5
16 3 35 4 43 0 12 -4 12 -11 -6 -40 -18 -32 -22 -34 -36 -21 -8 8 -18 15 -23
15 -19 0 -40 -33 -40 -63 -1 -27 -2 -29 -11 -14 -12 21 1 70 29 100 16 19 16
19 -4 7 -24 -15 -48 -81 -39 -109 8 -25 -19 -44 -54 -39 -17 2 -28 1 -25 -4 9
-13 61 -9 74 6 14 18 39 10 49 -17 5 -12 7 7 7 49 -1 55 2 69 14 69 11 0 14
-10 12 -42 -1 -23 3 -54 9 -70 6 -15 10 -30 11 -33 0 -3 4 -11 10 -17 11 -14
4 -43 -10 -43 -5 0 -15 14 -22 30 -7 17 -15 29 -17 26 -10 -10 29 -66 46 -66
14 0 20 10 25 45 9 57 44 87 95 83 36 -3 36 -3 33 -48 -2 -24 -8 -48 -15 -52
-21 -14 -70 -8 -90 10 -16 13 -19 14 -15 2 5 -15 25 -24 82 -35 21 -5 26 -9
18 -17 -8 -8 -24 -9 -56 -1 -25 5 -43 6 -40 2 2 -4 25 -11 50 -15 l45 -6 -7
-42 c-9 -58 -21 -86 -37 -86 -65 0 -168 33 -213 69 -11 9 -5 2 12 -15 33 -30
33 -31 27 -101 -13 -152 67 -261 212 -293 59 -12 175 -68 175 -84 0 -6 4 -5 9
3 6 9 18 12 36 7 27 -7 28 -8 21 -69 -4 -34 -9 -137 -13 -230 -3 -92 -8 -167
-10 -167 -3 0 -19 9 -36 21 l-32 21 30 -26 c36 -31 51 -33 58 -6 3 11 12 20
20 20 13 0 15 -25 10 -192 -2 -106 -8 -202 -13 -213 -4 -11 -12 -32 -18 -46
-5 -14 -6 -32 -2 -40 7 -12 -4 -14 -64 -14 -62 0 -78 -4 -113 -27 -79 -52 -90
-143 -21 -167 65 -23 372 0 451 33 34 14 36 14 52 -10 8 -13 34 -34 58 -46 37
-20 57 -23 159 -23 130 0 154 9 192 74 27 47 9 103 -43 133 -28 16 -37 27 -33
40 2 10 -3 27 -12 37 -9 10 -14 25 -10 35 4 9 0 24 -9 34 -10 11 -18 46 -22
97 -3 44 -8 96 -10 116 l-5 36 61 11 c97 18 259 100 273 139 4 9 -16 59 -43
112 l-49 97 29 17 c39 22 52 60 46 129 -5 54 -54 181 -67 173 -17 -10 -50 34
-56 75 l-6 45 51 -49 c28 -28 46 -53 41 -56 -5 -3 10 -6 33 -7 40 -2 41 -1 18
11 -18 10 -20 15 -10 20 8 3 5 4 -7 1 -14 -4 -29 5 -50 26 -16 17 -56 54 -89
82 -44 37 -51 41 -26 15 29 -32 34 -44 35 -90 1 -50 0 -53 -22 -51 -23 3 -23
3 3 -20 14 -12 32 -40 40 -62 8 -23 14 -31 15 -20 0 11 -9 35 -21 54 -23 39
-21 45 13 32 35 -13 65 -55 83 -114 36 -122 -2 -217 -75 -187 -21 9 -33 9 -49
0 -12 -6 -30 -8 -40 -5 -17 5 -16 8 10 36 62 67 65 165 6 253 -50 76 -110 110
-194 111 -35 0 -63 2 -63 4 0 2 11 16 24 32 15 18 22 36 19 49 -6 22 0 25 27
10 23 -12 44 15 96 124 22 46 44 78 56 82 39 12 86 -6 139 -54 72 -64 215
-246 235 -299 16 -40 16 -46 0 -87 -21 -55 -85 -129 -126 -146 -17 -7 -29 -15
-26 -17 2 -2 22 5 44 16 50 25 109 93 124 142 18 61 3 102 -76 207 -146 194
-203 243 -290 252 l-50 5 48 54 c46 51 96 144 96 176 0 8 20 34 45 58 36 36
45 52 45 80 0 19 -9 45 -20 60 -19 24 -19 27 -3 91 9 36 20 63 25 59 14 -8 29
18 22 40 -3 11 0 17 10 17 24 0 19 31 -13 82 -22 34 -44 53 -91 76 -34 18 -77
34 -96 38 -23 4 -34 12 -34 23 0 30 -57 109 -97 134 -68 44 -168 61 -278 46z
m247 -321 c-7 -7 -12 -30 -12 -53 0 -33 9 -54 45 -105 25 -35 45 -68 45 -72 0
-4 -42 -8 -92 -8 l-93 1 -30 61 c-33 67 -65 98 -102 98 -36 0 -80 -26 -99 -59
-10 -16 -28 -34 -40 -40 -13 -6 -26 -21 -30 -35 -5 -22 -8 -23 -25 -13 -14 9
-26 9 -49 0 -26 -10 -30 -9 -30 7 0 25 -18 37 -72 44 -42 6 -48 10 -48 31 0
14 7 43 16 65 15 38 18 40 59 40 24 0 47 -4 50 -10 3 -5 46 -10 96 -10 95 0
113 -11 57 -35 -27 -11 -29 -14 -11 -15 12 0 35 11 51 25 19 16 42 25 64 25
43 0 178 34 215 54 34 18 51 20 35 4z m-183 -126 l24 -27 -22 -3 c-13 -2 -28
1 -34 7 -16 16 -54 13 -83 -5 -30 -20 -40 -13 -24 16 14 26 68 51 95 44 11 -3
31 -18 44 -32z m-135 -104 c-5 -35 -4 -49 4 -44 6 4 8 -1 5 -13 -3 -10 0 -22
6 -25 6 -4 11 -12 11 -18 0 -16 -29 11 -46 43 -14 29 -19 91 -7 102 3 4 12 7
20 7 11 0 12 -11 7 -52z m156 37 c7 -8 10 -28 8 -45 -3 -16 -1 -30 4 -30 12 0
10 -48 -2 -55 -6 -4 -8 -11 -5 -16 4 -5 -7 -23 -24 -39 -25 -26 -37 -30 -83
-30 -62 0 -89 15 -112 64 -20 43 -21 119 -1 136 13 11 15 8 15 -21 0 -19 9
-52 21 -73 17 -32 18 -41 7 -48 -10 -8 -10 -8 2 -5 8 3 41 11 73 18 49 11 57
16 57 35 0 13 5 26 10 29 16 10 -8 45 -31 45 -27 0 -20 21 12 37 31 16 34 16
49 -2z m-492 -20 c7 -14 12 -37 12 -50 0 -24 -35 -115 -45 -115 -3 0 -14 15
-25 33 -29 46 -27 121 2 141 31 22 43 20 56 -9z m121 0 c18 -18 7 -45 -22 -53
-22 -6 -22 -6 3 -12 20 -5 25 -12 23 -36 -3 -41 -44 -74 -94 -74 -44 0 -45 3
-24 53 8 20 15 62 15 93 l0 56 43 -7 c23 -4 48 -13 56 -20z m97 -43 c6 -4 19
-30 28 -57 9 -28 24 -61 32 -74 33 -47 132 -66 184 -36 14 8 31 17 38 21 18 9
62 -34 62 -61 0 -11 -8 -32 -17 -45 l-17 -25 22 19 c33 28 29 78 -7 109 -19
15 -26 29 -21 37 4 7 12 10 16 7 5 -3 9 13 9 36 0 49 12 55 126 56 l77 1 11
-45 c7 -28 17 -45 26 -45 8 0 15 7 15 16 0 8 13 29 29 45 40 39 91 40 121 2
23 -29 21 -59 -6 -100 -20 -32 -33 -29 -32 7 1 17 -4 36 -10 42 -6 6 -8 17 -5
24 7 19 -6 18 -29 -3 -10 -9 -17 -26 -17 -37 1 -17 2 -18 6 -3 6 21 19 22 27
1 8 -21 7 -36 -2 -52 -10 -15 -42 -5 -42 13 0 8 -4 16 -8 19 -5 3 -8 -16 -8
-42 -1 -109 -103 -206 -261 -247 -68 -18 -259 -20 -335 -4 -141 30 -248 130
-248 231 0 32 1 33 45 34 54 2 88 22 103 63 7 17 17 44 23 60 9 26 20 34 49
40 3 0 10 -3 16 -7z m-301 -116 c41 -41 49 -95 28 -199 -11 -55 -23 -92 -32
-95 -11 -4 -12 2 -7 24 15 62 10 116 -11 134 -20 16 -20 17 -2 39 11 13 19 30
19 39 0 9 -13 -5 -29 -30 -31 -48 -46 -58 -92 -58 -60 0 -53 84 11 143 38 34
82 36 115 3z m55 -47 c0 -6 -4 -7 -10 -4 -5 3 -10 11 -10 16 0 6 5 7 10 4 6
-3 10 -11 10 -16z m894 -73 c-18 -53 -74 -148 -91 -153 -6 -2 -14 5 -18 16 -4
15 4 34 30 68 20 26 41 67 48 90 9 35 13 40 28 32 16 -8 17 -12 3 -53z m-848
-81 c14 -19 45 -47 69 -61 23 -15 50 -43 60 -61 11 -19 31 -42 47 -51 27 -16
37 -32 20 -32 -4 0 -23 -13 -41 -28 -29 -24 -32 -31 -23 -49 10 -18 7 -24 -26
-47 -20 -14 -31 -26 -24 -26 8 0 12 -23 12 -81 l0 -80 -52 -24 c-84 -38 -121
-41 -148 -13 -43 44 -60 97 -60 186 0 99 9 122 50 122 25 0 30 -4 30 -24 0
-12 10 -38 23 -57 21 -31 27 -34 74 -34 29 -1 50 2 47 6 -2 4 -21 5 -42 2 -34
-5 -42 -1 -65 27 -29 34 -35 81 -13 99 8 6 16 25 18 42 3 21 2 27 -6 19 -6 -6
-11 -18 -11 -28 0 -19 -39 -42 -73 -42 -17 0 -22 4 -18 18 2 9 8 33 11 52 9
44 22 60 49 60 11 0 28 5 36 11 13 9 12 10 -2 5 -13 -4 -18 0 -18 14 0 24 13
26 34 4 9 -8 16 -11 16 -5 0 6 -9 15 -21 21 -18 10 -20 17 -14 63 9 64 16 77
27 48 4 -12 19 -37 34 -56z m-273 25 c3 -11 1 -20 -4 -20 -5 0 -9 9 -9 20 0
11 2 20 4 20 2 0 6 -9 9 -20z m1007 -108 c0 -15 -75 -72 -94 -72 -4 0 12 22
35 50 41 49 59 55 59 22z m-105 -47 c-53 -61 -87 -76 -189 -78 -53 -2 -61 0
-58 15 2 10 -1 26 -7 35 -8 16 -2 18 63 21 57 3 169 32 234 61 2 0 -18 -24
-43 -54z m-357 2 c45 -6 82 -14 82 -18 0 -3 -17 -9 -37 -13 -21 -3 -52 -9 -69
-12 -24 -4 -37 0 -62 21 -35 29 -43 51 -14 40 9 -4 54 -12 100 -18z m432 -68
c-33 -88 -79 -162 -97 -155 -8 3 -25 9 -38 12 -23 6 -23 5 -13 -24 11 -28 9
-34 -23 -70 -28 -33 -104 -82 -126 -82 -12 0 8 83 31 128 26 51 141 182 159
182 7 0 37 15 67 34 30 18 56 32 58 31 1 -1 -6 -27 -18 -56z m-356 22 c5 -8
-38 -21 -70 -21 -26 0 -14 19 14 23 48 7 51 7 56 -2z m-77 -45 c3 -2 -14 -28
-36 -57 -42 -56 -89 -164 -111 -256 -6 -29 -16 -53 -21 -53 -5 0 -9 -11 -9
-25 0 -20 -5 -25 -25 -25 -30 0 -31 3 -4 47 16 26 24 31 30 21 5 -7 9 34 9 99
l0 113 36 15 36 15 -22 31 c-22 30 -22 31 -4 44 11 7 28 21 39 29 18 14 69 15
82 2z m-515 -31 l56 -7 -1 -98 c-2 -91 0 -101 30 -159 31 -60 31 -61 10 -61
-32 1 -108 37 -140 68 -50 47 -71 99 -72 177 0 90 7 108 38 96 13 -5 48 -12
79 -16z m574 -41 c19 -30 42 -58 50 -61 20 -7 18 -17 -18 -90 -40 -82 -116
-153 -188 -176 -29 -10 -54 -16 -56 -14 -4 4 31 142 49 193 30 82 103 204 123
204 2 0 20 -25 40 -56z m63 49 c20 -5 22 -10 17 -41 -9 -56 -21 -58 -55 -9
-17 25 -31 48 -31 51 0 8 39 7 69 -1z m116 -1 c-6 -4 -22 -18 -37 -31 l-28
-24 0 26 c0 19 6 27 23 30 39 7 51 7 42 -1z m-25 -49 c-1 -13 -60 -78 -60 -66
0 11 47 73 56 73 2 0 4 -3 4 -7z m-330 -27 c0 -2 -7 -7 -16 -10 -8 -3 -12 -2
-9 4 6 10 25 14 25 6z m235 -168 c-4 -18 -20 -46 -37 -62 -23 -23 -28 -37 -26
-65 3 -31 8 -37 35 -45 l31 -10 6 -90 c3 -50 8 -137 10 -193 l5 -103 -73 0
c-87 0 -162 13 -219 38 l-42 19 6 109 c4 60 10 135 14 166 7 53 9 57 38 64 90
19 192 94 233 169 23 44 28 44 19 3z m290 -7 c51 -23 93 -65 116 -116 16 -36
17 -41 3 -55 -14 -13 -17 -13 -31 8 -9 12 -25 22 -37 21 -21 0 -21 0 2 -9 26
-11 28 -32 6 -54 -31 -32 -84 -14 -99 33 -3 11 1 37 10 58 14 34 14 37 0 22
-28 -27 -31 -86 -6 -119 l21 -30 -27 -6 c-34 -9 -75 13 -87 48 -12 33 12 101
49 141 14 15 22 27 17 27 -26 0 -82 -95 -82 -140 0 -14 -7 -20 -23 -20 -35 0
-61 34 -60 78 1 30 9 44 44 75 23 21 34 35 23 31 -42 -15 -84 -71 -84 -113 0
-25 -62 -40 -85 -21 -35 29 -7 69 74 110 108 54 186 63 256 31z m-605 -57 c0
-5 -32 -62 -45 -82 -4 -5 -85 30 -85 37 0 3 26 16 58 27 66 25 72 26 72 18z
m366 -129 c-8 -38 13 -88 39 -99 32 -12 95 -7 101 9 4 10 20 15 44 15 22 0 42
5 45 10 3 6 15 10 26 10 15 0 19 -7 19 -30 0 -78 50 -127 104 -102 15 7 28 7
40 0 19 -11 106 -184 106 -211 0 -33 -154 -114 -262 -137 -57 -13 -252 -10
-266 4 -4 4 -10 103 -14 219 -3 117 -9 240 -12 273 -5 64 -2 74 22 74 11 0 13
-8 8 -35z m384 -12 c0 -37 -22 -94 -45 -120 -24 -27 -25 -28 -40 -9 -40 52 3
133 78 145 4 0 7 -7 7 -16z m-310 -13 c29 0 62 -40 48 -57 -24 -30 -93 -8
-109 33 -12 33 -3 47 21 34 10 -5 28 -10 40 -10z m-400 -356 c0 -13 -8 -24
-20 -27 -17 -4 -20 0 -20 34 0 37 1 38 20 27 11 -7 20 -22 20 -34z m72 -41
c38 -23 94 -101 107 -150 15 -61 24 -178 16 -233 l-7 -50 -38 0 c-22 0 -62 5
-91 11 l-52 11 7 206 c4 114 10 210 12 214 7 11 12 10 46 -9z m448 -170 c0
-16 3 -65 7 -110 l6 -83 -32 0 c-18 0 -52 -5 -77 -11 -39 -10 -47 -9 -65 7
-19 17 -20 26 -15 77 9 89 64 145 144 147 28 0 32 -3 32 -27z m39 -222 c12 -8
13 -12 1 -25 -11 -14 -10 -19 4 -34 34 -39 22 -47 -71 -47 -85 0 -86 0 -89 25
-4 32 14 56 57 74 39 17 78 20 98 7z m-515 -46 c27 -8 72 -15 100 -15 39 0 47
-3 38 -12 -7 -7 -12 -18 -12 -26 0 -7 -7 -20 -16 -29 -19 -19 -90 -12 -143 15
-42 21 -57 49 -20 38 13 -3 38 -9 54 -13 41 -8 23 9 -23 22 -19 6 -37 16 -40
23 -5 15 2 15 62 -3z m-49 -82 c43 -22 127 -35 187 -29 54 7 59 6 56 -11 -1
-10 -19 -26 -39 -36 -54 -26 -230 -50 -329 -44 -69 4 -77 3 -45 -5 81 -20 336
11 391 47 12 8 24 11 28 8 14 -14 4 -41 -20 -51 -80 -37 -443 -62 -477 -33
-10 8 -17 28 -17 50 0 42 32 80 90 105 39 18 141 17 175 -1z m622 -17 c112
-57 24 -139 -152 -140 -49 -1 -103 2 -120 7 -24 6 -27 5 -12 -4 29 -17 168
-23 226 -9 28 6 67 23 86 36 l35 23 -13 -32 c-22 -54 -67 -72 -177 -72 -84 0
-102 3 -153 29 -37 18 -56 33 -53 41 2 7 -2 16 -10 19 -21 8 -18 56 4 56 9 0
31 9 49 20 83 50 220 63 290 26z"/>
<path d="M1389 2659 c27 -22 91 -24 98 -2 3 9 -3 9 -25 1 -23 -9 -36 -8 -63 5
l-34 17 24 -21z"/>
<path d="M1325 2510 c-3 -6 1 -7 9 -4 18 7 21 14 7 14 -6 0 -13 -4 -16 -10z"/>
<path d="M1452 2462 c-2 -50 -17 -82 -37 -82 -8 0 -19 -9 -25 -19 -7 -15 -6
-24 8 -39 18 -21 79 -41 67 -22 -3 5 -14 10 -24 10 -24 0 -45 26 -37 46 5 12
16 15 47 12 31 -3 37 -1 25 7 -9 7 -16 33 -19 71 -2 47 -4 50 -5 16z"/>
<path d="M1714 2288 c-5 -8 -2 -9 9 -5 26 10 20 -11 -11 -43 -38 -38 -107 -49
-164 -26 -23 9 -43 14 -45 12 -2 -2 11 -9 29 -16 18 -8 44 -22 57 -32 13 -10
33 -18 45 -18 17 1 16 3 -9 14 l-30 13 47 7 c32 5 56 16 75 35 41 42 53 58 46
65 -11 10 -41 7 -49 -6z"/>
<path d="M1933 555 c0 -8 4 -15 9 -15 4 0 8 4 8 9 0 6 -4 12 -8 15 -5 3 -9 -1
-9 -9z"/>
<path d="M1805 531 c-3 -5 -2 -12 3 -15 5 -3 9 1 9 9 0 17 -3 19 -12 6z"/>
<path d="M850 2314 c-25 -22 -40 -45 -39 -58 1 -20 2 -20 6 -1 7 26 31 53 68
76 17 11 24 19 18 19 -7 0 -31 -16 -53 -36z"/>
<path d="M909 2173 c-13 -16 -12 -17 4 -4 9 7 17 15 17 17 0 8 -8 3 -21 -13z"/>
<path d="M851 2064 c0 -11 3 -14 6 -6 3 7 2 16 -1 19 -3 4 -6 -2 -5 -13z"/>
<path d="M1286 1470 c-22 -56 -19 -65 5 -11 11 24 18 46 15 48 -2 2 -11 -14
-20 -37z"/>
<path d="M1236 1322 c-9 -32 -16 -67 -15 -78 0 -10 9 14 20 55 10 41 17 76 15
78 -2 2 -11 -23 -20 -55z"/>
<path d="M1214 1191 c1 -26 9 -39 36 -59 l35 -25 -32 29 c-18 17 -34 42 -36
59 -4 27 -5 27 -3 -4z"/>
</g>
</svg>
