<?xml version="1.0" standalone="no"?>
<!DOCTYPE svg PUBLIC "-//W3C//DTD SVG 20010904//EN"
 "http://www.w3.org/TR/2001/REC-SVG-20010904/DTD/svg10.dtd">
<svg version="1.0" xmlns="http://www.w3.org/2000/svg"
 width="626.000000pt" height="626.000000pt" viewBox="0 0 626.000000 626.000000"
 preserveAspectRatio="xMidYMid meet">

<g transform="translate(0.000000,626.000000) scale(0.100000,-0.100000)"
fill="#000000" stroke="none">
<path d="M0 3130 l0 -3130 3130 0 3130 0 0 3130 0 3130 -3130 0 -3130 0 0
-3130z m3401 2755 c289 -35 355 -49 517 -117 95 -39 364 -186 482 -263 85 -55
163 -126 289 -258 149 -158 193 -236 256 -452 58 -200 60 -235 57 -780 -3
-617 -10 -693 -92 -993 -10 -40 -22 -113 -26 -162 l-7 -89 36 -40 c41 -46 61
-106 51 -156 -11 -59 -58 -110 -166 -183 -57 -38 -110 -77 -118 -86 -7 -10
-33 -31 -56 -47 -42 -28 -42 -29 -75 -161 -42 -173 -50 -380 -25 -600 25 -204
6 -325 -67 -451 -38 -65 -90 -113 -227 -212 -77 -55 -184 -146 -277 -237 -139
-135 -160 -151 -250 -195 -86 -42 -105 -48 -158 -47 -40 1 -84 11 -130 29 -98
39 -213 39 -340 0 -159 -49 -288 -45 -411 14 -61 29 -119 73 -338 259 -71 60
-179 140 -240 178 -207 128 -318 265 -347 428 -16 96 -6 252 23 346 21 68 23
94 23 290 0 138 -5 235 -13 270 -12 54 -14 56 -110 126 -53 39 -125 87 -159
108 -102 61 -162 145 -171 239 -6 58 19 128 55 157 l25 19 -12 93 c-7 51 -28
179 -47 283 -31 166 -36 220 -43 425 -5 155 -15 288 -30 390 -15 100 -23 206
-24 300 -1 139 1 150 36 275 103 357 238 607 438 805 129 128 242 209 408 293
231 117 425 179 617 198 61 6 137 14 170 19 114 15 271 10 476 -15z"/>
<path d="M3040 5877 c-3 -3 -70 -10 -150 -17 -183 -15 -309 -39 -447 -85 -147
-49 -389 -169 -498 -246 -120 -86 -276 -243 -353 -357 -115 -168 -217 -407
-277 -647 -26 -103 -27 -119 -22 -260 3 -82 16 -213 27 -290 14 -88 25 -227
30 -375 7 -203 13 -261 43 -425 19 -104 38 -217 42 -250 3 -33 9 -72 11 -87 4
-21 -1 -32 -21 -50 -39 -33 -57 -75 -57 -127 0 -94 50 -164 170 -237 42 -25
95 -61 117 -78 22 -18 61 -47 87 -64 43 -30 47 -36 62 -101 12 -52 16 -124 16
-278 0 -189 -2 -217 -25 -308 -19 -76 -25 -126 -26 -210 0 -169 28 -245 130
-356 57 -62 90 -88 266 -201 39 -25 130 -96 204 -159 263 -224 303 -250 425
-275 84 -18 133 -13 275 27 143 40 235 40 351 -1 119 -42 154 -40 268 16 84
41 107 59 245 192 97 93 203 184 292 249 136 98 178 141 219 222 53 102 65
227 42 421 -28 235 -18 399 35 610 25 99 34 118 60 140 17 14 52 43 77 64 26
21 84 63 130 94 45 30 94 69 108 87 48 64 41 143 -18 204 -31 32 -32 35 -30
114 3 94 16 178 38 239 58 166 73 329 81 877 7 523 2 604 -47 796 -60 239
-115 335 -303 526 -132 134 -198 186 -342 269 -278 160 -409 221 -558 259
-113 29 -662 92 -677 78z m370 -83 c236 -30 449 -99 715 -231 191 -96 283
-161 421 -298 255 -254 355 -474 380 -840 3 -55 1 -203 -5 -330 -7 -126 -16
-358 -21 -515 -6 -203 -13 -310 -26 -372 -10 -49 -21 -88 -26 -88 -11 0 -10
116 3 244 12 125 -1 216 -53 345 -55 139 -73 310 -43 426 9 33 35 99 59 148
49 95 40 122 -12 39 -69 -106 -103 -217 -122 -392 -14 -126 -9 -171 36 -331
19 -67 34 -141 34 -163 0 -22 -19 -117 -41 -210 -37 -153 -41 -180 -36 -256 3
-47 14 -110 24 -140 16 -48 26 -61 83 -103 142 -105 129 -153 -74 -289 -66
-45 -138 -95 -160 -112 -35 -29 -43 -31 -110 -29 -39 1 -102 7 -139 14 -112
18 -198 -4 -297 -76 -36 -27 -56 -52 -82 -107 -75 -156 -77 -212 -3 -84 28 47
53 86 56 86 4 0 -1 -25 -9 -56 -15 -52 -14 -62 6 -168 28 -143 28 -138 -4
-124 -18 9 -33 9 -54 1 -16 -6 -34 -7 -41 -2 -20 13 -73 11 -87 -3 -9 -9 -15
-9 -24 0 -18 18 -59 14 -83 -8 -20 -18 -23 -19 -35 -5 -18 21 -73 19 -94 -4
-17 -19 -18 -19 -52 1 -39 23 -79 18 -112 -12 -12 -11 -23 -20 -25 -20 -3 0
-7 26 -11 58 -4 31 -11 71 -16 87 -8 24 -9 18 -7 -36 l3 -66 -57 1 c-41 1 -62
-4 -76 -16 -11 -10 -22 -18 -25 -18 -3 0 -8 51 -12 113 -10 178 -24 197 -25
35 -1 -76 -4 -138 -8 -138 -5 0 -17 7 -27 15 -11 9 -41 15 -68 15 -39 0 -54
-5 -74 -25 l-24 -24 -33 19 c-37 23 -72 25 -107 6 -22 -13 -27 -12 -53 10 -31
26 -57 30 -87 14 -14 -7 -27 -5 -49 8 -29 16 -33 16 -60 1 -28 -17 -29 -16
-50 12 -12 16 -31 29 -43 29 -12 0 -32 10 -45 22 -13 13 -35 21 -53 20 l-31
-1 8 52 c5 29 8 94 8 145 0 50 2 92 5 92 3 0 30 -41 60 -90 30 -50 63 -101 73
-113 l18 -22 -6 25 c-3 14 -26 66 -51 117 -93 192 -246 268 -499 247 -141 -11
-150 -10 -192 19 -222 153 -281 197 -300 226 -49 73 -43 109 32 191 30 32 64
78 76 102 30 59 35 158 15 288 -43 273 -39 372 21 590 31 111 38 151 38 225
-1 81 -5 103 -49 225 -67 188 -96 287 -96 326 0 18 -4 36 -10 39 -17 11 -11
-65 14 -170 68 -283 71 -304 52 -406 -9 -51 -32 -134 -51 -184 -67 -179 -81
-290 -62 -490 4 -48 4 -74 -2 -65 -18 31 -32 232 -29 440 2 180 -1 243 -21
390 -29 218 -25 326 18 485 47 177 68 231 152 402 71 142 93 177 184 285 144
171 261 260 479 363 252 119 420 166 706 195 198 20 304 19 500 -6z m-1901
-2582 c37 -176 36 -265 -6 -311 l-25 -26 8 25 c10 31 11 237 2 308 -9 65 7 69
21 4z m3247 -106 c-8 -106 -7 -120 15 -188 35 -108 34 -106 10 -84 -30 27 -61
118 -61 181 0 56 28 205 39 205 3 0 2 -51 -3 -114z m-2741 -882 c18 -35 20
-59 20 -221 0 -100 3 -176 7 -170 12 22 30 250 23 296 -4 25 -15 67 -25 93
l-18 48 38 0 c21 0 42 -6 48 -13 21 -25 24 -122 8 -266 -20 -179 -20 -237 -1
-291 8 -23 22 -86 31 -139 27 -162 80 -264 172 -333 96 -72 105 -69 27 8 -72
71 -145 177 -132 190 3 3 22 -5 44 -19 53 -33 152 -69 173 -62 9 3 23 -1 30
-10 7 -8 25 -15 40 -15 25 0 28 -4 36 -52 l8 -53 4 41 3 42 33 -10 c30 -9 35
-16 45 -62 18 -80 30 -88 24 -15 -5 53 -3 62 8 52 7 -7 29 -13 50 -13 32 0 37
-4 47 -32 l10 -33 1 39 c1 32 4 37 19 31 9 -4 29 -10 45 -13 22 -3 27 -9 28
-36 0 -17 7 -49 15 -71 l13 -40 -3 71 -3 71 29 -15 c22 -11 36 -12 53 -4 19 9
27 7 45 -13 31 -33 64 -39 106 -19 32 15 36 15 53 0 19 -18 76 -22 86 -6 3 5
25 7 50 3 30 -4 50 -1 60 7 22 18 24 11 15 -40 -5 -25 -9 -56 -9 -70 0 -39 15
-5 29 65 18 91 16 87 45 73 20 -9 34 -9 56 -1 l30 12 -2 -44 c-2 -25 0 -47 3
-50 8 -8 28 51 28 81 0 21 5 24 34 24 19 0 41 2 49 6 11 4 14 -5 11 -48 l-3
-53 14 40 c7 22 14 52 14 68 1 22 6 27 25 27 13 0 31 3 40 6 11 4 16 -3 18
-33 4 -38 4 -38 12 15 8 45 11 52 32 52 13 0 28 9 34 19 8 17 14 18 38 9 26
-10 36 -7 91 27 34 21 63 36 65 34 2 -2 -7 -32 -20 -65 -17 -40 -51 -91 -100
-148 -40 -48 -74 -89 -74 -92 0 -10 38 16 89 62 70 63 93 105 158 296 61 180
63 193 55 494 -4 125 4 175 40 251 20 42 21 43 70 43 44 0 49 -2 43 -17 -31
-75 -57 -163 -69 -243 -9 -51 -14 -95 -12 -97 2 -2 20 56 41 129 20 73 45 151
55 174 16 37 20 41 49 36 17 -2 31 -5 31 -7 0 -1 -14 -32 -30 -69 -63 -138
-74 -272 -44 -518 20 -166 36 -208 27 -73 -20 314 -5 473 55 595 24 49 31 55
61 58 29 3 33 1 26 -15 -78 -190 -88 -291 -59 -616 23 -264 8 -391 -58 -489
-22 -33 -78 -84 -169 -153 -74 -57 -180 -150 -235 -207 -54 -56 -126 -128
-159 -160 -70 -68 -196 -138 -247 -138 -19 0 -79 13 -134 30 -141 43 -229 41
-411 -6 -102 -26 -150 -34 -183 -30 -81 10 -195 77 -335 197 -153 131 -232
188 -375 272 -139 82 -238 179 -270 262 -49 131 -49 200 1 465 29 155 33 478
7 555 -10 27 -14 53 -10 56 4 4 25 9 47 11 l40 3 12 -70 c18 -100 24 -102 19
-8 -2 45 -1 84 2 88 12 11 27 -2 47 -41z m212 -20 c18 -14 40 -38 48 -54 20
-38 19 -153 -1 -294 -15 -106 -15 -116 4 -226 25 -147 19 -163 -20 -54 -29 81
-34 197 -14 323 28 178 21 235 -38 290 -25 24 -33 41 -19 41 3 0 21 -11 40
-26z m1828 -91 c-15 -35 -17 -145 -4 -206 29 -130 5 -328 -46 -392 l-16 -20 5
20 c48 178 52 257 20 424 -11 56 -12 83 -3 115 14 52 27 76 40 76 7 0 8 -7 4
-17z m-1675 -273 c17 -9 17 -13 4 -56 -8 -26 -14 -70 -14 -97 0 -41 -2 -47
-14 -38 -26 22 -49 174 -29 194 9 10 31 9 53 -3z m87 -52 c20 -22 20 -27 8
-101 -7 -42 -15 -80 -19 -84 -3 -3 -17 -1 -31 5 -22 10 -25 18 -25 62 0 64 19
140 34 140 7 0 22 -10 33 -22z m142 -32 c8 -10 9 -20 1 -37 -6 -13 -14 -51
-18 -84 -5 -45 -11 -61 -25 -63 -14 -3 -17 5 -18 50 -1 57 -4 56 -14 -5 -5
-34 -8 -37 -22 -25 -21 17 -11 132 13 159 20 22 67 25 83 5z m1155 -64 c4 -38
2 -72 -6 -98 -12 -35 -16 -39 -48 -39 l-35 0 -1 90 c-1 84 6 115 27 115 4 0
10 -26 12 -57 l3 -58 2 63 c2 58 3 62 21 53 13 -8 20 -26 25 -69z m103 62 c3
-9 1 -49 -5 -88 -10 -68 -31 -101 -57 -93 -13 5 -24 168 -12 185 14 18 66 15
74 -4z m-1135 -13 c23 -19 24 -23 17 -91 -11 -97 -16 -110 -45 -110 -23 0 -24
3 -24 61 0 37 -4 58 -10 54 -5 -3 -10 -28 -10 -56 0 -52 -12 -63 -31 -27 -14
25 -5 154 12 175 16 19 63 16 91 -6z m916 -93 c-3 -67 -8 -92 -23 -108 -20
-22 -79 -28 -91 -8 -15 23 -4 182 13 201 27 29 33 20 34 -45 1 -74 17 -52 18
24 1 48 1 48 27 36 26 -12 26 -13 22 -100z m323 96 c17 -16 17 -18 -1 -67 -20
-53 -33 -67 -62 -67 -15 0 -18 10 -18 68 0 38 3 72 7 75 12 13 56 7 74 -9z
m-952 -46 c-2 -29 -1 -73 0 -98 3 -42 4 -43 11 -15 4 17 8 60 9 98 1 79 11 84
66 36 l36 -32 -3 -81 c-3 -76 -4 -82 -29 -93 -31 -15 -136 -20 -149 -7 -5 5
-12 50 -16 101 -7 89 -6 92 19 117 43 43 59 35 56 -26z m296 27 c22 -21 25
-33 25 -98 0 -92 -14 -135 -46 -143 -40 -10 -113 5 -124 26 -5 10 -9 58 -7
107 2 87 3 88 36 110 44 30 85 29 116 -2z m180 4 c14 -14 11 -169 -3 -195 -6
-12 -21 -24 -33 -27 -20 -5 -21 -3 -15 41 9 74 -9 84 -23 12 -10 -49 -16 -61
-29 -58 -14 3 -17 19 -20 106 l-3 102 33 20 c33 20 72 20 93 -1z m-601 -10
c26 -20 27 -24 24 -108 l-3 -86 -48 -3 c-33 -2 -57 2 -74 13 -24 16 -25 21
-22 94 3 47 10 85 18 94 19 23 73 21 105 -4z m-483 -219 c3 -25 9 -66 13 -92
11 -62 -9 -65 -47 -6 -19 30 -27 55 -27 88 0 53 6 62 35 58 16 -2 21 -13 26
-48z m85 -40 c6 -41 14 -85 18 -97 6 -19 4 -23 -13 -23 -30 0 -49 36 -57 107
-8 71 -1 96 23 91 14 -2 20 -20 29 -78z m1433 61 c18 -12 10 -119 -10 -132
-31 -20 -44 -5 -47 54 -4 75 17 103 57 78z m-1354 -120 c3 -2 5 21 5 52 0 42
4 57 14 57 21 0 26 -23 26 -116 0 -83 0 -84 -25 -84 -15 0 -30 9 -39 23 -20
32 -29 146 -14 165 11 13 14 6 21 -38 4 -30 10 -56 12 -59z m142 67 c6 -7 13
-52 17 -100 6 -81 6 -87 -13 -93 -21 -6 -60 9 -73 29 -14 21 -9 131 8 154 17
24 46 29 61 10z m1044 0 c5 -53 -5 -135 -18 -150 -17 -19 -58 -24 -67 -10 -3
5 0 42 7 83 11 65 15 74 37 80 37 10 40 10 41 -3z m79 -40 c0 -52 -19 -88 -46
-88 -15 0 -7 121 10 132 27 18 36 7 36 -44z m-986 16 c3 -9 6 -51 6 -95 l0
-79 -28 0 c-15 0 -38 7 -50 16 -19 13 -22 24 -22 75 0 78 11 99 54 99 22 0 36
-6 40 -16z m758 -37 c-2 -31 0 -38 7 -27 6 8 11 27 11 41 0 31 9 42 25 29 16
-13 -8 -157 -29 -178 -19 -19 -71 -3 -70 21 0 10 1 42 2 72 2 41 7 60 23 76
26 26 34 18 31 -34z m-634 -64 c3 -95 1 -102 -18 -108 -33 -10 -66 18 -73 62
-10 55 -8 98 3 128 9 23 15 26 47 23 l38 -3 3 -102z m493 40 c1 -44 3 -52 9
-33 4 14 8 40 9 58 1 24 5 32 20 32 25 0 28 -12 23 -103 -4 -74 -5 -78 -34
-93 -25 -13 -35 -13 -59 -3 l-30 12 7 76 c7 83 17 111 39 111 11 0 15 -14 16
-57z m-333 -59 l3 -102 -31 -10 c-27 -10 -30 -9 -34 11 -3 12 -9 42 -14 67
l-10 45 -1 -62 c-1 -66 -8 -74 -37 -46 -14 14 -16 30 -11 96 4 44 12 86 18 94
8 9 28 13 63 11 l51 -3 3 -101z m140 56 c2 -19 -1 -65 -8 -103 -14 -78 -30
-93 -80 -75 -30 10 -32 13 -27 47 4 20 9 61 12 91 10 82 10 82 57 78 41 -3 43
-5 46 -38z m118 -12 c-3 -29 -6 -68 -6 -86 0 -55 -58 -99 -97 -74 -10 6 -10
25 3 88 9 43 18 89 20 102 4 19 11 22 46 22 l41 0 -7 -52z"/>
<path d="M2990 5753 c-144 -11 -371 -57 -513 -104 -190 -63 -413 -204 -571
-361 -60 -60 -106 -111 -103 -115 4 -3 44 28 89 69 197 177 386 291 602 363
125 42 198 58 441 95 269 42 269 42 253 51 -12 8 -104 9 -198 2z"/>
<path d="M3326 5721 c11 -11 340 -71 380 -70 40 1 -61 33 -188 59 -99 21 -210
27 -192 11z"/>
<path d="M2825 5591 c-362 -65 -721 -232 -921 -429 -66 -65 -122 -132 -110
-132 2 0 51 39 108 86 141 119 242 183 421 269 180 87 271 120 472 170 211 53
225 70 30 36z"/>
<path d="M3946 5546 c229 -97 420 -225 614 -411 177 -169 189 -176 101 -60
-76 100 -200 216 -314 292 -181 120 -400 223 -474 223 -20 0 3 -14 73 -44z"/>
<path d="M3351 5576 c2 -2 89 -25 194 -51 407 -100 611 -212 982 -543 52 -46
97 -82 100 -79 23 23 -257 279 -445 405 -191 129 -457 231 -685 261 -80 11
-154 14 -146 7z"/>
<path d="M2355 5306 c-38 -19 -91 -49 -116 -67 -51 -37 -129 -106 -129 -114 0
-6 175 99 340 204 12 8 12 10 -5 10 -11 0 -51 -15 -90 -33z"/>
<path d="M3970 5266 c20 -20 284 -175 289 -170 8 7 -32 44 -85 79 -59 39 -228
115 -204 91z"/>
<path d="M1638 5036 c-80 -95 -139 -205 -162 -298 -12 -52 9 -28 37 41 15 38
59 119 98 180 39 62 69 114 67 116 -2 3 -20 -15 -40 -39z"/>
<path d="M1710 4974 c0 -64 27 -171 57 -227 15 -29 62 -86 103 -127 62 -63 95
-86 195 -137 117 -60 289 -127 308 -120 6 2 -66 38 -159 81 -196 91 -258 129
-334 206 -71 72 -103 133 -136 256 -14 54 -28 101 -30 103 -2 2 -4 -13 -4 -35z"/>
<path d="M4684 4813 c-17 -75 -101 -170 -221 -251 -75 -51 -269 -145 -408
-198 -118 -46 -102 -57 28 -19 192 55 363 148 493 269 81 74 119 130 129 189
8 44 -11 53 -21 10z"/>
<path d="M1601 4490 c-1 -9 17 -63 40 -120 104 -266 104 -266 103 -385 0 -97
-3 -118 -28 -180 -55 -137 -54 -164 2 -72 54 90 65 132 65 247 0 88 -4 118
-27 185 -31 91 -154 348 -155 325z"/>
<path d="M4683 4358 c-45 -63 -90 -157 -125 -261 -25 -76 -31 -108 -31 -182 0
-94 17 -200 34 -211 6 -3 9 52 8 148 -2 142 0 158 25 233 15 44 52 131 82 194
29 62 54 115 54 117 0 15 -21 -3 -47 -38z"/>
<path d="M1460 4112 c0 -83 -5 -123 -20 -167 -25 -72 -25 -87 0 -57 42 50 62
185 44 295 -12 71 -24 36 -24 -71z"/>
<path d="M4491 4182 c-11 -22 -25 -68 -31 -103 -12 -79 -13 -180 -1 -159 12
19 64 291 57 297 -2 3 -14 -13 -25 -35z"/>
<path d="M1416 4142 c-4 -35 -6 -66 -3 -69 8 -7 20 79 15 108 -2 13 -8 -4 -12
-39z"/>
<path d="M1837 4143 c9 -37 15 -108 15 -193 0 -133 0 -134 15 -90 9 26 16 87
16 145 2 84 -2 108 -20 148 -30 64 -43 59 -26 -10z"/>
<path d="M2189 4160 c39 -25 107 -53 207 -84 95 -31 221 -107 305 -184 38 -35
69 -60 69 -56 0 24 -65 95 -135 147 -105 78 -165 107 -315 151 -171 51 -169
50 -131 26z"/>
<path d="M3893 4116 c-254 -84 -427 -205 -449 -313 -9 -45 7 -41 29 8 11 22
39 56 63 77 74 62 215 142 289 164 84 25 213 79 246 102 21 15 22 16 4 16 -11
-1 -93 -25 -182 -54z"/>
<path d="M4807 4091 c-9 -30 -17 -70 -17 -88 0 -50 29 -168 46 -189 14 -17 15
-15 8 31 -3 28 -9 106 -13 175 l-6 125 -18 -54z"/>
<path d="M3530 4063 c-47 -31 -101 -88 -142 -151 -22 -34 -39 -64 -37 -66 2
-2 55 50 117 115 105 110 125 143 62 102z"/>
<path d="M3951 3995 c9 -8 221 -46 243 -43 35 6 -136 48 -194 48 -29 0 -51 -2
-49 -5z"/>
<path d="M2183 3981 c-77 -13 -60 -24 27 -17 47 3 98 6 113 6 16 0 26 4 22 10
-7 11 -96 11 -162 1z"/>
<path d="M2245 3890 c-86 -17 -257 -92 -242 -106 2 -2 46 9 98 25 92 28 207
54 302 67 26 3 50 10 53 15 6 11 -155 10 -211 -1z"/>
<path d="M3875 3896 c-5 -2 -36 -9 -67 -16 -32 -6 -58 -14 -58 -18 0 -4 39 -5
87 -1 118 7 207 -4 337 -40 127 -36 142 -38 101 -11 -59 38 -209 80 -302 85
-48 3 -92 3 -98 1z"/>
<path d="M2422 3756 c-52 -14 -124 -27 -160 -31 -152 -14 -350 -72 -428 -126
-91 -62 -160 -167 -183 -277 -26 -124 -5 -206 90 -360 136 -218 221 -283 379
-290 107 -5 143 9 274 106 50 38 121 90 158 116 82 57 121 111 157 219 37 108
70 170 125 237 41 49 46 60 46 105 0 37 -9 70 -33 120 -45 94 -78 130 -151
167 -83 42 -152 45 -274 14z m-522 -194 c0 -5 -10 -17 -22 -28 -40 -35 -96
-133 -113 -198 -32 -118 -6 -230 84 -368 98 -151 151 -190 257 -191 52 -1 74
6 146 40 47 23 132 72 189 110 139 93 133 90 120 65 -20 -38 -175 -153 -270
-200 -83 -41 -103 -47 -170 -50 -68 -3 -82 -1 -131 25 -92 48 -206 210 -251
356 -43 140 -10 285 92 400 37 43 69 60 69 39z m716 -417 c-32 -49 -92 -101
-156 -137 -36 -20 -101 -57 -144 -82 -150 -86 -240 -84 -328 6 -49 51 -92 129
-103 191 -9 44 10 52 20 8 3 -16 22 -55 41 -88 106 -175 191 -187 406 -55 37
23 88 52 115 66 26 13 73 47 103 74 59 53 73 59 46 17z"/>
<path d="M3707 3759 c-83 -19 -178 -85 -215 -149 -26 -44 -27 -49 -24 -185 3
-158 -3 -140 118 -349 117 -203 233 -298 414 -340 129 -31 281 -12 358 42 44
32 182 217 203 273 22 58 24 135 5 300 -16 140 -38 188 -109 236 -68 46 -294
117 -486 152 -170 32 -202 35 -264 20z m-93 -195 c-34 -77 -41 -164 -20 -238
26 -88 140 -293 194 -349 28 -29 77 -63 121 -85 71 -35 81 -37 185 -40 101 -4
119 -1 204 26 50 16 92 26 92 21 0 -15 -91 -62 -149 -75 -171 -41 -359 12
-481 135 -44 44 -72 87 -130 203 -68 135 -75 154 -78 220 -5 89 12 169 45 208
38 46 45 36 17 -26z m111 -297 c22 -102 118 -228 209 -274 62 -31 147 -40 226
-23 33 7 63 10 67 7 15 -16 -94 -51 -158 -52 -56 0 -76 5 -141 38 -81 40 -152
107 -189 179 -23 46 -48 138 -42 155 8 20 21 6 28 -30z"/>
<path d="M3078 3670 c-34 -10 -88 -42 -88 -52 0 -12 18 -10 51 8 32 16 117 20
171 9 51 -12 23 13 -34 30 -57 17 -61 17 -100 5z"/>
<path d="M3068 3555 c-44 -14 -127 -79 -116 -91 3 -3 36 12 74 32 91 51 137
51 226 1 36 -20 78 -41 94 -47 28 -10 28 -9 -8 23 -88 79 -185 108 -270 82z"/>
<path d="M2948 3353 c-49 -41 -66 -63 -84 -113 -43 -115 -77 -191 -96 -215
-27 -35 -15 -45 18 -14 29 27 56 77 103 189 17 41 49 97 71 124 22 26 40 50
40 52 0 11 -22 1 -52 -23z"/>
<path d="M3255 3364 c57 -21 79 -46 142 -164 66 -123 109 -189 98 -150 -22 73
-114 258 -146 292 -32 34 -41 38 -85 37 l-49 0 40 -15z"/>
<path d="M3040 3303 c-88 -58 -102 -86 -155 -333 -27 -127 -46 -182 -110 -327
-62 -142 -58 -269 12 -339 94 -94 239 -25 326 157 l36 74 16 -40 c64 -154 93
-200 140 -215 90 -30 206 56 242 179 27 94 15 149 -72 337 -47 103 -87 206
-104 273 -33 126 -52 168 -89 204 -46 44 -192 62 -242 30z m88 -520 c15 -177
15 -230 3 -218 -18 20 -31 119 -31 240 0 69 4 125 8 125 5 0 14 -66 20 -147z
m-223 0 c-4 -27 -22 -96 -41 -155 -44 -136 -51 -192 -31 -240 11 -27 24 -39
44 -43 48 -11 54 -14 48 -25 -14 -23 -67 -10 -101 24 -54 54 -50 128 18 334
51 153 77 195 63 105z m305 -137 c14 -101 62 -209 111 -250 36 -30 49 -32 90
-10 17 8 33 13 35 11 9 -9 -58 -57 -78 -57 -52 0 -119 76 -159 181 -22 55 -44
262 -31 283 7 12 13 -20 32 -158z"/>
<path d="M1684 2915 c25 -117 136 -254 251 -311 95 -47 115 -40 34 13 -104 68
-146 109 -220 222 -49 72 -69 96 -65 76z"/>
<path d="M4498 2848 c-99 -139 -114 -151 -252 -199 -86 -29 -72 -37 30 -16 83
18 145 57 197 125 48 62 100 158 95 174 -2 5 -33 -32 -70 -84z"/>
<path d="M3550 2881 c0 -25 66 -194 101 -260 36 -66 89 -142 89 -127 0 4 -17
41 -39 84 -21 42 -60 128 -86 189 -42 102 -65 142 -65 114z"/>
<path d="M4485 2647 c-52 -51 -63 -66 -43 -58 46 17 77 41 99 77 36 58 17 52
-56 -19z"/>
<path d="M2619 2690 c-37 -11 -54 -21 -173 -104 -60 -42 -123 -78 -143 -82
-30 -6 -144 7 -208 22 -49 12 22 -27 83 -46 122 -38 159 -26 335 108 57 44
113 84 123 90 25 14 15 21 -17 12z"/>
<path d="M1760 2672 c0 -18 106 -99 116 -89 6 5 -97 97 -108 97 -5 0 -8 -4 -8
-8z"/>
<path d="M1699 2641 c12 -21 96 -97 124 -113 34 -18 1 27 -60 81 -60 53 -81
64 -64 32z"/>
<path d="M1560 2626 c0 -43 119 -157 205 -197 52 -24 145 -52 145 -44 0 2 -43
24 -96 50 -74 36 -113 63 -175 122 -43 42 -79 73 -79 69z"/>
<path d="M4541 2566 c-34 -29 -74 -59 -91 -66 -16 -7 -30 -16 -30 -21 0 -15
43 -10 77 9 43 23 132 132 108 132 -2 0 -31 -24 -64 -54z"/>
<path d="M4650 2547 c-36 -39 -99 -92 -140 -119 -75 -49 -65 -56 20 -13 62 31
135 98 166 151 15 25 25 46 23 48 -2 2 -33 -28 -69 -67z"/>
<path d="M3763 2593 c-29 -11 -10 -23 36 -23 27 0 98 -15 161 -35 62 -19 132
-37 156 -41 48 -7 163 10 209 31 27 12 17 13 -90 9 -116 -5 -124 -4 -239 30
-110 33 -197 44 -233 29z"/>
<path d="M3861 2434 c-41 -34 -147 -214 -127 -214 3 0 36 44 75 98 38 54 76
104 85 111 18 15 21 31 7 31 -5 0 -23 -12 -40 -26z"/>
<path d="M2482 2423 c15 -16 49 -61 77 -102 55 -80 66 -78 27 5 -25 54 -89
124 -114 124 -12 0 -9 -7 10 -27z"/>
<path d="M3980 2396 c-64 -47 -129 -120 -151 -172 -11 -24 -29 -95 -39 -157
-11 -61 -26 -137 -34 -167 -9 -30 -13 -56 -11 -59 12 -11 68 138 82 216 25
144 45 185 141 285 87 90 92 113 12 54z"/>
<path d="M2334 2328 c107 -83 135 -110 163 -157 18 -30 37 -79 44 -110 15 -75
58 -209 68 -215 16 -10 -40 246 -68 308 -35 80 -135 170 -211 190 -24 6 -24 6
4 -16z"/>
<path d="M3064 2279 c-30 -43 -71 -68 -147 -89 -71 -19 -72 -34 -1 -25 99 12
153 51 174 126 5 16 7 29 6 29 -2 0 -16 -18 -32 -41z"/>
<path d="M3170 2270 c0 -30 51 -77 92 -85 19 -4 50 -2 69 3 29 9 30 10 9 11
-53 2 -106 24 -137 58 -30 31 -33 32 -33 13z"/>
<path d="M3657 2236 c-52 -49 -104 -186 -121 -326 -12 -89 11 -48 53 97 21 71
52 156 69 188 18 32 30 60 29 62 -2 2 -15 -8 -30 -21z"/>
<path d="M2650 2166 c0 -3 17 -32 38 -64 21 -33 58 -112 82 -176 25 -64 47
-116 51 -116 9 0 -7 82 -27 145 -32 96 -85 184 -124 205 -11 6 -20 8 -20 6z"/>
<path d="M3455 2068 c-34 -75 -55 -163 -54 -228 l1 -55 23 70 c70 213 88 340
30 213z"/>
<path d="M2830 2024 c0 -20 74 -206 78 -194 8 22 -29 138 -54 171 -13 18 -24
29 -24 23z"/>
<path d="M1916 1775 c5 -105 3 -139 -21 -269 -26 -136 -27 -155 -17 -223 7
-42 24 -98 38 -127 25 -50 120 -157 158 -178 19 -10 19 -10 0 14 -10 14 -39
49 -63 79 -101 124 -118 216 -81 444 25 152 23 253 -4 335 -15 44 -15 42 -10
-75z"/>
<path d="M1968 1469 c-15 -37 -19 -107 -8 -153 12 -55 50 -149 57 -142 3 3 -2
38 -11 78 -9 40 -19 109 -23 153 -5 44 -11 73 -15 64z"/>
<path d="M4167 1185 c-20 -53 -49 -112 -64 -132 -15 -20 -71 -64 -123 -98 -85
-55 -123 -91 -190 -179 -22 -29 -1 -15 90 58 41 34 106 79 143 101 111 64 165
149 186 293 4 28 5 52 1 52 -4 0 -23 -43 -43 -95z"/>
<path d="M2116 1170 c12 -50 55 -110 117 -162 34 -29 110 -102 170 -163 59
-60 107 -105 107 -100 0 17 -78 127 -122 173 -24 25 -65 62 -93 82 -48 36
-116 105 -163 165 -22 29 -22 29 -16 5z"/>
<path d="M3117 1050 c4 -30 7 -152 6 -270 -3 -235 6 -258 32 -78 26 181 12
346 -31 388 -14 14 -15 10 -7 -40z"/>
<path d="M3824 1001 c-23 -11 -61 -36 -84 -57 -40 -36 -100 -114 -100 -130 0
-4 35 26 78 68 42 41 96 87 120 103 62 41 56 48 -14 16z"/>
<path d="M3715 998 c-26 -14 -75 -59 -75 -70 0 -15 15 -7 59 33 45 40 52 56
16 37z"/>
<path d="M3250 845 c1 -88 3 -106 12 -90 16 27 16 171 0 187 -9 9 -12 -10 -12
-97z"/>
<path d="M3007 926 c-10 -26 -9 -146 2 -146 12 0 21 103 12 137 -6 23 -8 24
-14 9z"/>
<path d="M2907 883 c-3 -16 -2 -44 3 -63 7 -31 8 -28 9 28 1 66 -3 79 -12 35z"/>
<path d="M3328 884 c-5 -4 -8 -26 -7 -48 l1 -41 9 33 c11 37 9 68 -3 56z"/>
<path d="M3746 630 c-148 -96 -180 -104 -301 -75 -70 17 -189 20 -165 5 8 -5
29 -10 45 -10 17 0 64 -9 105 -20 140 -37 214 -21 327 68 44 35 84 82 70 82
-3 0 -39 -22 -81 -50z"/>
<path d="M3621 648 c-24 -11 -73 -23 -110 -27 -64 -7 -65 -8 -36 -20 51 -21
145 2 210 53 l20 15 -20 0 c-11 0 -40 -10 -64 -21z"/>
<path d="M2590 643 c0 -15 93 -100 130 -119 53 -28 156 -24 249 9 80 29 88 33
78 43 -4 4 -45 -3 -91 -16 -126 -34 -186 -27 -273 32 -86 57 -93 61 -93 51z"/>
<path d="M2715 641 c33 -31 177 -58 220 -40 28 11 24 13 -70 25 -55 7 -113 15
-130 19 -18 3 -26 2 -20 -4z"/>
</g>
</svg>
